

The Karate Kid CAM SUBBED XViD-UKB


Format: AVI
Format/Info: Audio Video Interleave
File size: 1.30 GiB
Duration: 2h 12mn
Overall bit rate: 1 410 Kbps
Source: The Karate Kid, 2010[ DVD CUSTOM][NTSC][Antonn + SNDX][DUAL-Latino]

[color=red]*** SAMPLE INCLUDED ***[/color]

IMDB: [url]http://www.imdb.com/title/tt1155076/[/url]

[color=blue]*** Video ***[/color]
ID: 0
Format: MPEG-4 Visual
Format profile: Advanced Simple@L5
Format settings, BVOP: Yes
Format settings, QPel: No
Format settings, GMC: No warppoints
Format settings, Matrix: Default (H.263)
Muxing mode: Packed bitstream
Codec ID: XVID
Codec ID/Hint: XviD
Duration: 2h 12mn
Bit rate: 1 266 Kbps
Width: 720 pixels
Height: 304 pixels
Display aspect ratio: 2.35:1
Frame rate: 29.970 fps
Color space: YUV
Chroma subsampling: 4:2:0
Bit depth: 8 bits
Scan type: Progressive
Bits/(Pixel*Frame): 0.193
Stream size: 1.17 GiB (90%)
Writing library: XviD 1.2.1 (UTC 2008-12-04)

[color=blue]*** Audio ***[/color]
ID: 1
Format: MPEG Audio
Format version: Version 1
Format profile: Layer 3
Mode: Joint stereo
Mode extension: MS Stereo
Codec ID: 55
Codec ID/Hint: MP3
Duration: 2h 12mn
Bit rate mode: Constant
Bit rate: 128 Kbps
Channel(s): 2 channels
Sampling rate: 48.0 KHz
Stream size: 121 MiB (9%)
Alignment: Aligned on interleaves
Interleave, duration: 33 ms (1.00 video frame)
Interleave, preload duration: 408 ms

[note]
This is a rip from Anntons DVD. It had alot of glare, but I toned it down a bit. 
It is missing some footage around 30 secs.(In my opinion, not important really.) 
It does have spanish subs hardcoded through out and English subs for non english parts. 
Take it or leave it.

[screens]
